<svg width="135" height="36" viewBox="0 0 135 36" fill="none" xmlns="http://www.w3.org/2000/svg">
<path d="M5.23394 10.4758C8.12456 10.4758 10.4679 8.13109 10.4679 5.23878C10.4679 2.34647 8.12456 0.00178528 5.23394 0.00178528C2.34331 0.00178528 0 2.34647 0 5.23878C0 8.13109 2.34331 10.4758 5.23394 10.4758Z" fill="white"/>
<path d="M5.23394 22.8617C8.12456 22.8617 10.4679 20.5171 10.4679 17.6247C10.4679 14.7324 8.12456 12.3878 5.23394 12.3878C2.34331 12.3878 0 14.7324 0 17.6247C0 20.5171 2.34331 22.8617 5.23394 22.8617Z" fill="white"/>
<path d="M5.23394 35.5356C8.12456 35.5356 10.4679 33.1909 10.4679 30.2986C10.4679 27.4063 8.12456 25.0616 5.23394 25.0616C2.34331 25.0616 0 27.4063 0 30.2986C0 33.1909 2.34331 35.5356 5.23394 35.5356Z" fill="white"/>
<path d="M25.7981 0H17.5353V35.5356H25.7981V0Z" fill="white"/>
<path d="M44.5773 35.5356L48.3332 14.7719L51.5252 35.5356H60.0707L65.8927 0H58.0046L55.7511 25.5772L51.9953 0H45.5159L41.479 25.5772L39.0381 0H30.7736L36.5019 35.5356H44.5773Z" fill="white"/>
<path d="M74.3106 9.87431H71.6258V13.0731H74.6305V15.0564H69.3238V3.28605H74.4382V5.26932H71.6258V8.02035H74.3106V9.87431Z" fill="white"/>
<path d="M76.2281 3.41374C76.8032 3.28605 77.6351 3.15836 78.5301 3.15836C80.0001 3.15836 81.0873 3.47839 81.79 4.18151C82.8125 5.07697 83.3246 6.67555 83.3246 8.97885C83.3246 11.3452 82.6849 13.0731 81.6623 13.9685C80.832 14.7363 79.6802 15.1194 78.0826 15.1194C77.3153 15.1194 76.6126 15.0547 76.1651 14.9917V3.41374H76.2281ZM78.5301 13.2654C78.6577 13.3301 78.7853 13.3301 78.9129 13.3301C80.0001 13.3301 80.958 12.2423 80.958 8.98047C80.958 6.54947 80.3183 5.07859 78.9129 5.07859C78.7853 5.07859 78.5931 5.07859 78.4654 5.14324V13.2654H78.5301Z" fill="white"/>
<path d="M87.032 3.28605V10.9621C87.032 12.69 87.5441 13.2008 88.1822 13.2008C88.8219 13.2008 89.3323 12.753 89.3323 10.9621V3.28605H91.6343V10.579C91.6343 13.5855 90.4841 15.2487 88.1822 15.2487C85.6896 15.2487 84.73 13.5208 84.73 10.579V3.28605H87.032Z" fill="white"/>
<path d="M99.2429 14.9287C98.923 15.0564 98.2833 15.184 97.453 15.184C94.4483 15.184 92.9783 12.69 92.9783 9.36355C92.9783 4.88624 95.4709 3.15836 97.7729 3.15836C98.6032 3.15836 99.1153 3.3507 99.3705 3.47839L98.9877 5.39701C98.7324 5.26932 98.4126 5.14162 97.9005 5.14162C96.6227 5.14162 95.4079 6.29247 95.4079 9.1712C95.4079 11.9853 96.4951 13.0731 97.9005 13.0731C98.2833 13.0731 98.7308 13.0084 98.9877 12.8807L99.2429 14.9287Z" fill="white"/>
<path d="M102.695 12.37L102.183 15.0563H99.9456L102.503 3.22301H105.252L107.554 15.0563H105.317L104.805 12.37H102.695ZM104.614 10.579L104.231 8.08501C104.104 7.38189 103.976 6.16639 103.848 5.39862H103.784C103.656 6.16639 103.464 7.38189 103.336 8.08501L102.889 10.579H104.614Z" fill="white"/>
<path d="M109.216 5.39701H107.107V3.28605H113.628V5.39701H111.518V15.1194H109.216V5.39701Z" fill="white"/>
<path d="M117.143 3.28605V15.1194H114.841V3.28605H117.143Z" fill="white"/>
<path d="M122.385 15.2487C119.7 15.2487 118.678 12.4346 118.678 9.1712C118.678 5.97243 119.957 3.15836 122.578 3.15836C125.39 3.15836 126.222 6.29247 126.222 8.97885C126.157 13.4562 124.624 15.2487 122.385 15.2487ZM122.45 13.2654C123.409 13.2654 123.792 11.5375 123.792 9.10816C123.792 6.9972 123.472 5.14162 122.45 5.14162C121.427 5.14162 121.043 6.9972 121.043 9.1712C120.98 11.4745 121.427 13.2654 122.45 13.2654Z" fill="white"/>
<path d="M127.629 15.1194V3.28605H129.739L131.593 7.9557C131.976 8.85116 132.553 10.3867 132.871 11.4099H132.936C132.871 10.1944 132.68 8.08339 132.68 5.90939V3.28605H134.725V15.1194H132.551L130.761 10.5774C130.378 9.61731 129.802 8.08339 129.546 7.05862H129.482C129.546 8.27412 129.609 10.065 129.609 12.4314V15.1178C129.609 15.1194 127.629 15.1194 127.629 15.1194Z" fill="white"/>
<path d="M75.59 32.9688C75.2701 33.0965 74.6304 33.2242 73.8001 33.2242C70.7954 33.2242 69.3254 30.7302 69.3254 27.4037C69.3254 22.9264 71.818 21.1985 74.12 21.1985C74.9503 21.1985 75.4624 21.3908 75.7176 21.5185L75.3348 23.4372C75.0795 23.3095 74.7597 23.1818 74.2476 23.1818C72.9682 23.1818 71.755 24.3326 71.755 27.2113C71.755 30.0254 72.8422 31.1132 74.2476 31.1132C74.6304 31.1132 75.0779 31.0486 75.3348 30.9209L75.59 32.9688Z" fill="white"/>
<path d="M81.8546 27.9161H79.1698V31.1148H82.1744V33.0981H76.8678V21.3278H81.9822V23.3111H79.1698V26.0621H81.8546V27.9161Z" fill="white"/>
<path d="M83.7721 33.1612V21.3278H85.8818L87.7363 25.9975C88.1192 26.8929 88.6959 28.4285 89.0157 29.4516H89.0803C89.0157 28.2361 88.8251 26.1252 88.8251 23.9512V21.3278H90.8702V33.1612H88.7589L86.969 28.6192C86.5861 27.6591 86.0094 26.1252 85.7542 25.1004H85.6896C85.7542 26.3159 85.8172 28.1068 85.8172 30.4732V33.1595C85.8188 33.1612 83.7721 33.1612 83.7721 33.1612Z" fill="white"/>
<path d="M94.0655 23.4372H91.9558V21.3262H98.4772V23.4372H96.3675V33.1595H94.0655V23.4372Z" fill="white"/>
<path d="M104.677 27.9161H101.992V31.1148H104.997V33.0981H99.6904V21.3278H104.805V23.3111H101.992V26.0621H104.677V27.9161Z" fill="white"/>
<path d="M106.595 21.4555C107.297 21.3278 108.257 21.2001 109.087 21.2001C110.365 21.2001 111.517 21.3925 112.22 22.0956C112.922 22.7357 113.179 23.5034 113.179 24.5266C113.179 25.8067 112.539 26.9576 111.325 27.4684V27.533C112.155 27.853 112.539 28.6208 112.732 29.8994C112.987 31.2425 113.307 32.6504 113.499 33.0981H111.069C110.942 32.7781 110.622 31.5626 110.494 30.284C110.302 28.8132 109.919 28.4285 109.152 28.4285H108.832V33.1628H106.53V21.4571H106.595V21.4555ZM108.897 26.6359H109.344C110.367 26.6359 110.879 25.8051 110.879 24.7804C110.879 23.7572 110.496 23.0525 109.472 23.0525C109.279 23.0525 109.024 23.0525 108.897 23.1171V26.6359Z" fill="white"/>
<path d="M133.724 26.6877C133.724 31.0225 130.212 34.5356 125.881 34.5356C121.55 34.5356 118.038 31.0225 118.038 26.6877C118.038 22.3528 121.55 18.8397 125.881 18.8397C130.212 18.8397 133.724 22.3528 133.724 26.6877Z" stroke="white" stroke-width="2"/>
<path d="M125.881 22.6031L130.85 25.3251V28.9651H129.933V25.7987L125.85 28.0179L120.91 25.3251L125.881 22.6031ZM122.716 27.2194L125.881 28.9651L129.046 27.2194V29.054L125.881 30.7706L122.716 29.054V27.2194Z" fill="white"/>
</svg>
