<svg width="18" height="18" viewBox="0 0 18 18" fill="none" xmlns="http://www.w3.org/2000/svg">
<mask id="mask0_48_285" style="mask-type:alpha" maskUnits="userSpaceOnUse" x="0" y="0" width="18" height="18">
<rect width="18" height="18" fill="#D9D9D9"/>
</mask>
<g mask="url(#mask0_48_285)">
<path d="M3 10.1438L4.89375 8.25L3 6.35625L1.10625 8.25L3 10.1438ZM13.125 9.75L15 6.75L16.875 9.75H13.125ZM0.75 13.5C0.5375 13.5 0.359375 13.4281 0.215625 13.2844C0.071875 13.1406 0 12.9625 0 12.75V12.3188C0 11.7688 0.275 11.3281 0.825 10.9969C1.375 10.6656 2.1 10.5 3 10.5C3.1625 10.5 3.31563 10.5063 3.45938 10.5188C3.60313 10.5313 3.74375 10.55 3.88125 10.575C3.70625 10.825 3.57812 11.0938 3.49687 11.3813C3.41562 11.6688 3.375 11.975 3.375 12.3V13.5H0.75ZM5.25 13.5C5.0375 13.5 4.85937 13.4281 4.71562 13.2844C4.57187 13.1406 4.5 12.9625 4.5 12.75V12.3C4.5 11.4875 4.91562 10.8281 5.74687 10.3219C6.57812 9.81563 7.6625 9.5625 9 9.5625C10.35 9.5625 11.4375 9.81563 12.2625 10.3219C13.0875 10.8281 13.5 11.4875 13.5 12.3V12.75C13.5 12.9625 13.4281 13.1406 13.2844 13.2844C13.1406 13.4281 12.9625 13.5 12.75 13.5H5.25ZM14.625 13.5V12.3C14.625 11.975 14.5813 11.6688 14.4938 11.3813C14.4063 11.0938 14.2813 10.825 14.1188 10.575C14.2563 10.55 14.3969 10.5313 14.5406 10.5188C14.6844 10.5063 14.8375 10.5 15 10.5C15.9 10.5 16.625 10.6656 17.175 10.9969C17.725 11.3281 18 11.7688 18 12.3188V12.75C18 12.9625 17.9281 13.1406 17.7844 13.2844C17.6406 13.4281 17.4625 13.5 17.25 13.5H14.625ZM9 11.0625C8.2875 11.0625 7.65 11.1594 7.0875 11.3531C6.525 11.5469 6.19375 11.7625 6.09375 12H11.9062C11.7937 11.75 11.4594 11.5312 10.9031 11.3438C10.3469 11.1562 9.7125 11.0625 9 11.0625ZM9 9C8.375 9 7.84375 8.78125 7.40625 8.34375C6.96875 7.90625 6.75 7.375 6.75 6.75C6.75 6.125 6.96875 5.59375 7.40625 5.15625C7.84375 4.71875 8.375 4.5 9 4.5C9.625 4.5 10.1562 4.71875 10.5938 5.15625C11.0313 5.59375 11.25 6.125 11.25 6.75C11.25 7.375 11.0313 7.90625 10.5938 8.34375C10.1562 8.78125 9.625 9 9 9ZM9 6C8.7875 6 8.60938 6.07188 8.46563 6.21563C8.32188 6.35938 8.25 6.5375 8.25 6.75C8.25 6.9625 8.32188 7.14063 8.46563 7.28438C8.60938 7.42813 8.7875 7.5 9 7.5C9.2125 7.5 9.39063 7.42813 9.53438 7.28438C9.67813 7.14063 9.75 6.9625 9.75 6.75C9.75 6.5375 9.67813 6.35938 9.53438 6.21563C9.39063 6.07188 9.2125 6 9 6Z" fill="#AEAFB7"/>
</g>
</svg>
