<svg width="114" height="31" viewBox="0 0 114 31" fill="none" xmlns="http://www.w3.org/2000/svg">
<g clip-path="url(#clip0_48_239)">
<path d="M4.92214 9.39043C7.34516 9.39043 9.30941 7.42597 9.30941 5.00268C9.30941 2.57939 7.34516 0.614929 4.92214 0.614929C2.49911 0.614929 0.534866 2.57939 0.534866 5.00268C0.534866 7.42597 2.49911 9.39043 4.92214 9.39043Z" fill="#D0D2D3"/>
<path d="M4.92214 19.7679C7.34516 19.7679 9.30941 17.8034 9.30941 15.3801C9.30941 12.9568 7.34516 10.9924 4.92214 10.9924C2.49911 10.9924 0.534866 12.9568 0.534866 15.3801C0.534866 17.8034 2.49911 19.7679 4.92214 19.7679Z" fill="#C9262F"/>
<path d="M4.92214 30.3865C7.34516 30.3865 9.30941 28.422 9.30941 25.9987C9.30941 23.5754 7.34516 21.611 4.92214 21.611C2.49911 21.611 0.534866 23.5754 0.534866 25.9987C0.534866 28.422 2.49911 30.3865 4.92214 30.3865Z" fill="white"/>
<path d="M22.1598 0.613464H15.2336V30.3865H22.1598V0.613464Z" fill="white"/>
<path d="M37.9012 30.3865L41.0494 12.9899L43.7251 30.3865H50.8883L55.7685 0.613464H49.1564L47.2674 22.043L44.1192 0.613464H38.6879L35.304 22.043L33.258 0.613464H26.3304L31.132 30.3865H37.9012Z" fill="#C9262F"/>
<path d="M62.8246 8.88654H60.5741V11.5666H63.0928V13.2282H58.6445V3.36664H62.9316V5.0283H60.5741V7.33322H62.8246V8.88654Z" fill="white"/>
<path d="M64.432 3.47361C64.914 3.36663 65.6114 3.25964 66.3615 3.25964C67.5938 3.25964 68.5051 3.52778 69.0941 4.11688C69.9512 4.86713 70.3805 6.20648 70.3805 8.13628C70.3805 10.1189 69.8443 11.5666 68.9871 12.3168C68.2911 12.9601 67.3257 13.281 65.9865 13.281C65.3433 13.281 64.7542 13.2269 64.3791 13.1741V3.47361H64.432ZM66.3615 11.7277C66.4685 11.7819 66.5755 11.7819 66.6825 11.7819C67.5938 11.7819 68.3967 10.8705 68.3967 8.13763C68.3967 6.10085 67.8605 4.86849 66.6825 4.86849C66.5755 4.86849 66.4143 4.86849 66.3074 4.92266V11.7277H66.3615Z" fill="white"/>
<path d="M73.4881 3.36664V9.79794C73.4881 11.2456 73.9174 11.6736 74.4523 11.6736C74.9885 11.6736 75.4164 11.2984 75.4164 9.79794V3.36664H77.346V9.47699C77.346 11.9959 76.3819 13.3894 74.4523 13.3894C72.3629 13.3894 71.5586 11.9417 71.5586 9.47699V3.36664H73.4881Z" fill="white"/>
<path d="M83.7238 13.1212C83.4556 13.2282 82.9194 13.3352 82.2234 13.3352C79.7048 13.3352 78.4726 11.2456 78.4726 8.45859C78.4726 4.70733 80.5619 3.25964 82.4915 3.25964C83.1875 3.25964 83.6168 3.4208 83.8307 3.52778L83.5098 5.13527C83.2959 5.02829 83.0278 4.9213 82.5985 4.9213C81.5274 4.9213 80.5091 5.88552 80.5091 8.29743C80.5091 10.6552 81.4204 11.5666 82.5985 11.5666C82.9194 11.5666 83.2945 11.5124 83.5098 11.4054L83.7238 13.1212Z" fill="white"/>
<path d="M86.6175 10.9775L86.1882 13.2283H84.3128L86.4563 3.31384H88.761L90.6906 13.2283H88.8152L88.3859 10.9775H86.6175ZM88.2261 9.47701L87.9052 7.38741C87.7982 6.79831 87.6913 5.77992 87.5843 5.13666H87.5301C87.4231 5.77992 87.262 6.79831 87.155 7.38741L86.78 9.47701H88.2261Z" fill="white"/>
<path d="M92.0839 5.13528H90.3155V3.36664H95.782V5.13528H94.0135V13.2811H92.0839V5.13528Z" fill="white"/>
<path d="M98.7285 3.36664V13.2811H96.7989V3.36664H98.7285Z" fill="white"/>
<path d="M103.123 13.3894C100.872 13.3894 100.015 11.0317 100.015 8.29743C100.015 5.61738 101.087 3.25964 103.284 3.25964C105.641 3.25964 106.339 5.88552 106.339 8.13628C106.284 11.8875 104.999 13.3894 103.123 13.3894ZM103.177 11.7277C103.981 11.7277 104.302 10.28 104.302 8.24462C104.302 6.47597 104.034 4.9213 103.177 4.9213C102.32 4.9213 101.997 6.47597 101.997 8.29743C101.944 10.2272 102.32 11.7277 103.177 11.7277Z" fill="white"/>
<path d="M107.518 13.2811V3.36664H109.286L110.841 7.27905C111.162 8.0293 111.645 9.31583 111.912 10.1731H111.966C111.912 9.15468 111.752 7.38603 111.752 5.56458V3.36664H113.466V13.2811H111.644L110.144 9.47563C109.823 8.67121 109.339 7.38603 109.125 6.52744H109.071C109.125 7.54584 109.178 9.04634 109.178 11.029V13.2797C109.178 13.2811 107.518 13.2811 107.518 13.2811Z" fill="white"/>
<path d="M63.8971 28.2359C63.629 28.3429 63.0927 28.4499 62.3967 28.4499C59.8781 28.4499 58.6459 26.3603 58.6459 23.5733C58.6459 19.822 60.7353 18.3743 62.6649 18.3743C63.3609 18.3743 63.7901 18.5355 64.0041 18.6425L63.6831 20.25C63.4692 20.143 63.2011 20.036 62.7718 20.036C61.6994 20.036 60.6825 21.0002 60.6825 23.4121C60.6825 25.7699 61.5938 26.6813 62.7718 26.6813C63.0928 26.6813 63.4678 26.6271 63.6831 26.5201L63.8971 28.2359Z" fill="#C8262D"/>
<path d="M69.1483 24.0026H66.8978V26.6826H69.4164V28.3443H64.9682V18.4827H69.2552V20.1443H66.8978V22.4492H69.1483V24.0026Z" fill="#C8262D"/>
<path d="M70.7556 28.3971V18.4827H72.524L74.0785 22.3951C74.3995 23.1453 74.8829 24.4319 75.151 25.2891H75.2051C75.151 24.2707 74.9912 22.5021 74.9912 20.6806V18.4827H76.7055V28.3971H74.9357L73.4353 24.5917C73.1144 23.7872 72.631 22.5021 72.4171 21.6435H72.3629C72.4171 22.6619 72.4699 24.1624 72.4699 26.145V28.3957C72.4712 28.3971 70.7556 28.3971 70.7556 28.3971Z" fill="#C8262D"/>
<path d="M79.3839 20.25H77.6154V18.4813H83.0819V20.25H81.3135V28.3957H79.3839V20.25Z" fill="#C8262D"/>
<path d="M88.2789 24.0026H86.0284V26.6826H88.547V28.3443H84.0988V18.4827H88.3859V20.1443H86.0284V22.4492H88.2789V24.0026Z" fill="#C8262D"/>
<path d="M89.8863 18.5896C90.4753 18.4827 91.2796 18.3757 91.9756 18.3757C93.0467 18.3757 94.0122 18.5368 94.6012 19.1259C95.1902 19.6622 95.4055 20.3055 95.4055 21.1627C95.4055 22.2353 94.8693 23.1995 93.851 23.6274V23.6816C94.5471 23.9497 94.8693 24.593 95.0305 25.6642C95.2444 26.7896 95.5125 27.9691 95.6737 28.3443H93.6371C93.5301 28.0761 93.262 27.0577 93.155 25.9865C92.9939 24.7542 92.673 24.4319 92.0298 24.4319H91.7617V28.3984H89.8321V18.591H89.8863V18.5896ZM91.8158 22.93H92.1909C93.0481 22.93 93.4773 22.2339 93.4773 21.3753C93.4773 20.5181 93.1564 19.9276 92.2979 19.9276C92.1368 19.9276 91.9228 19.9276 91.8158 19.9818V22.93Z" fill="#C8262D"/>
<path d="M106.053 30.3865C110.147 30.3865 113.465 27.0675 113.465 22.9734C113.465 18.8792 110.147 15.5602 106.053 15.5602C101.959 15.5602 98.6405 18.8792 98.6405 22.9734C98.6405 27.0675 101.959 30.3865 106.053 30.3865Z" fill="white"/>
<path d="M106.053 29.5929C109.708 29.5929 112.672 26.6292 112.672 22.9734C112.672 19.3175 109.708 16.3538 106.053 16.3538C102.397 16.3538 99.434 19.3175 99.434 22.9734C99.434 26.6292 102.397 29.5929 106.053 29.5929Z" fill="#D0D2D3"/>
<path d="M106.053 28.8251C109.284 28.8251 111.904 26.2052 111.904 22.9734C111.904 19.7416 109.284 17.1217 106.053 17.1217C102.821 17.1217 100.202 19.7416 100.202 22.9734C100.202 26.2052 102.821 28.8251 106.053 28.8251Z" fill="#C8262D"/>
<path d="M106.053 19.5512L110.218 21.8318V24.8815H109.449V22.2285L106.027 24.0879L101.886 21.8318L106.053 19.5512ZM103.4 23.4189L106.053 24.8815L108.705 23.4189V24.956L106.053 26.3942L103.4 24.956V23.4189Z" fill="white"/>
</g>
<defs>
<clipPath id="clip0_48_239">
<rect width="114" height="31" fill="white"/>
</clipPath>
</defs>
</svg>
