<svg width="4" height="14" viewBox="0 0 4 14" fill="none" xmlns="http://www.w3.org/2000/svg">
<path d="M2 13.6667C1.54167 13.6667 1.14931 13.5035 0.822919 13.1771C0.49653 12.8507 0.333336 12.4584 0.333336 12C0.333336 11.5417 0.49653 11.1493 0.822919 10.823C1.14931 10.4966 1.54167 10.3334 2 10.3334C2.45834 10.3334 2.8507 10.4966 3.17709 10.823C3.50347 11.1493 3.66667 11.5417 3.66667 12C3.66667 12.4584 3.50347 12.8507 3.17709 13.1771C2.8507 13.5035 2.45834 13.6667 2 13.6667ZM2 8.66671C1.54167 8.66671 1.14931 8.50351 0.822919 8.17712C0.49653 7.85074 0.333336 7.45837 0.333336 7.00004C0.333336 6.54171 0.49653 6.14935 0.822919 5.82296C1.14931 5.49657 1.54167 5.33337 2 5.33337C2.45834 5.33337 2.8507 5.49657 3.17709 5.82296C3.50347 6.14935 3.66667 6.54171 3.66667 7.00004C3.66667 7.45837 3.50347 7.85074 3.17709 8.17712C2.8507 8.50351 2.45834 8.66671 2 8.66671ZM2 3.66671C1.54167 3.66671 1.14931 3.50351 0.822919 3.17712C0.49653 2.85074 0.333336 2.45837 0.333336 2.00004C0.333336 1.54171 0.49653 1.14935 0.822919 0.822957C1.14931 0.496568 1.54167 0.333374 2 0.333374C2.45834 0.333374 2.8507 0.496568 3.17709 0.822957C3.50347 1.14935 3.66667 1.54171 3.66667 2.00004C3.66667 2.45837 3.50347 2.85074 3.17709 3.17712C2.8507 3.50351 2.45834 3.66671 2 3.66671Z" fill="white"/>
</svg>
