<svg width="18" height="18" viewBox="0 0 18 18" fill="none" xmlns="http://www.w3.org/2000/svg">
<mask id="mask0_48_295" style="mask-type:alpha" maskUnits="userSpaceOnUse" x="0" y="0" width="18" height="18">
<rect width="18" height="18" fill="#D9D9D9"/>
</mask>
<g mask="url(#mask0_48_295)">
<path d="M3 12C2.7875 12 2.60937 11.9281 2.46562 11.7844C2.32187 11.6406 2.25 11.4625 2.25 11.25C2.25 11.0375 2.32187 10.8594 2.46562 10.7156C2.60937 10.5719 2.7875 10.5 3 10.5H7.5C7.7125 10.5 7.89063 10.5719 8.03438 10.7156C8.17813 10.8594 8.25 11.0375 8.25 11.25C8.25 11.4625 8.17813 11.6406 8.03438 11.7844C7.89063 11.9281 7.7125 12 7.5 12H3ZM3 9C2.7875 9 2.60937 8.92813 2.46562 8.78438C2.32187 8.64063 2.25 8.4625 2.25 8.25C2.25 8.0375 2.32187 7.85937 2.46562 7.71562C2.60937 7.57187 2.7875 7.5 3 7.5H10.5C10.7125 7.5 10.8906 7.57187 11.0344 7.71562C11.1781 7.85937 11.25 8.0375 11.25 8.25C11.25 8.4625 11.1781 8.64063 11.0344 8.78438C10.8906 8.92813 10.7125 9 10.5 9H3ZM3 6C2.7875 6 2.60937 5.92812 2.46562 5.78437C2.32187 5.64062 2.25 5.4625 2.25 5.25C2.25 5.0375 2.32187 4.85937 2.46562 4.71562C2.60937 4.57187 2.7875 4.5 3 4.5H10.5C10.7125 4.5 10.8906 4.57187 11.0344 4.71562C11.1781 4.85937 11.25 5.0375 11.25 5.25C11.25 5.4625 11.1781 5.64062 11.0344 5.78437C10.8906 5.92812 10.7125 6 10.5 6H3ZM12.2625 13.9312C12.1625 13.9312 12.0688 13.9156 11.9813 13.8844C11.8938 13.8531 11.8125 13.8 11.7375 13.725L10.125 12.1125C9.9875 11.975 9.91563 11.8031 9.90938 11.5969C9.90313 11.3906 9.975 11.2125 10.125 11.0625C10.2625 10.925 10.4344 10.8531 10.6406 10.8469C10.8469 10.8406 11.025 10.9063 11.175 11.0438L12.2625 12.1125L14.9062 9.46875C15.0563 9.31875 15.2344 9.24688 15.4406 9.25313C15.6469 9.25938 15.825 9.3375 15.975 9.4875C16.1125 9.6375 16.1844 9.8125 16.1906 10.0125C16.1969 10.2125 16.125 10.3875 15.975 10.5375L12.7875 13.725C12.7125 13.8 12.6313 13.8531 12.5438 13.8844C12.4563 13.9156 12.3625 13.9312 12.2625 13.9312Z" fill="#AEAFB7"/>
</g>
</svg>
