<svg width="20" height="20" viewBox="0 0 20 20" fill="none" xmlns="http://www.w3.org/2000/svg">
<path opacity="0.4" d="M9.99935 4.41674V17.7751C9.85768 17.7751 9.70768 17.7501 9.59102 17.6834L9.55768 17.6667C7.95768 16.7917 5.16602 15.8751 3.35768 15.6334L3.11602 15.6001C2.31602 15.5001 1.66602 14.7501 1.66602 13.9501V3.88341C1.66602 2.89174 2.47435 2.14174 3.46602 2.22508C5.21602 2.36674 7.86602 3.25008 9.34935 4.17508L9.55768 4.30008C9.68268 4.37508 9.84102 4.41674 9.99935 4.41674Z" fill="#C8262D"/>
<path d="M18.3333 3.89165V13.95C18.3333 14.75 17.6833 15.5 16.8833 15.6L16.6083 15.6333C14.7917 15.875 11.9917 16.8 10.3917 17.6833C10.2833 17.75 10.15 17.775 10 17.775V4.41665C10.1583 4.41665 10.3167 4.37498 10.4417 4.29998L10.5833 4.20832C12.0667 3.27498 14.725 2.38332 16.475 2.23332H16.525C17.5167 2.14998 18.3333 2.89165 18.3333 3.89165Z" fill="#C8262D"/>
<path d="M6.45898 7.69995H4.58398C4.24232 7.69995 3.95898 7.41662 3.95898 7.07495C3.95898 6.73328 4.24232 6.44995 4.58398 6.44995H6.45898C6.80065 6.44995 7.08398 6.73328 7.08398 7.07495C7.08398 7.41662 6.80065 7.69995 6.45898 7.69995Z" fill="#C8262D"/>
<path d="M7.08398 10.2H4.58398C4.24232 10.2 3.95898 9.91662 3.95898 9.57495C3.95898 9.23328 4.24232 8.94995 4.58398 8.94995H7.08398C7.42565 8.94995 7.70898 9.23328 7.70898 9.57495C7.70898 9.91662 7.42565 10.2 7.08398 10.2Z" fill="#C8262D"/>
</svg>
