<svg width="18" height="18" viewBox="0 0 18 18" fill="none" xmlns="http://www.w3.org/2000/svg">
<mask id="mask0_48_280" style="mask-type:alpha" maskUnits="userSpaceOnUse" x="0" y="0" width="18" height="18">
<rect width="18" height="18" fill="#D9D9D9"/>
</mask>
<g mask="url(#mask0_48_280)">
<path d="M11.4375 8.64375L13.5 7.44375C13.625 7.36875 13.6875 7.2625 13.6875 7.125C13.6875 6.9875 13.625 6.88125 13.5 6.80625L11.4375 5.60625C11.325 5.54375 11.2 5.5125 11.0625 5.5125C10.925 5.5125 10.8 5.54375 10.6875 5.60625L8.625 6.80625C8.5 6.88125 8.4375 6.9875 8.4375 7.125C8.4375 7.2625 8.5 7.36875 8.625 7.44375L10.6875 8.64375C10.8 8.70625 10.925 8.7375 11.0625 8.7375C11.2 8.7375 11.325 8.70625 11.4375 8.64375ZM11.4375 10.9125L12.75 10.1625C12.8625 10.1 12.9531 10.0094 13.0219 9.89062C13.0906 9.77187 13.125 9.64375 13.125 9.50625V8.3625L11.4375 9.3375C11.325 9.4 11.2 9.43125 11.0625 9.43125C10.925 9.43125 10.8 9.4 10.6875 9.3375L9 8.3625V9.50625C9 9.64375 9.03437 9.77187 9.10312 9.89062C9.17187 10.0094 9.2625 10.1 9.375 10.1625L10.6875 10.9125C10.8 10.975 10.925 11.0063 11.0625 11.0063C11.2 11.0063 11.325 10.975 11.4375 10.9125ZM15 15H11.25C11.25 14.75 11.2406 14.5 11.2219 14.25C11.2031 14 11.175 13.75 11.1375 13.5H15V4.5H3V5.3625C2.75 5.325 2.5 5.29688 2.25 5.27813C2 5.25938 1.75 5.25 1.5 5.25V4.5C1.5 4.0875 1.64688 3.73438 1.94063 3.44063C2.23438 3.14688 2.5875 3 3 3H15C15.4125 3 15.7656 3.14688 16.0594 3.44063C16.3531 3.73438 16.5 4.0875 16.5 4.5V13.5C16.5 13.9125 16.3531 14.2656 16.0594 14.5594C15.7656 14.8531 15.4125 15 15 15ZM6 15C5.8 15 5.625 14.9406 5.475 14.8219C5.325 14.7031 5.23125 14.5438 5.19375 14.3438C5.05625 13.5562 4.70313 12.8875 4.13438 12.3375C3.56562 11.7875 2.8875 11.4437 2.1 11.3062C1.9125 11.2812 1.76563 11.1906 1.65938 11.0344C1.55313 10.8781 1.5 10.7 1.5 10.5C1.5 10.2875 1.56875 10.1094 1.70625 9.96563C1.84375 9.82188 2.00625 9.7625 2.19375 9.7875C3.36875 9.9375 4.37187 10.4313 5.20312 11.2688C6.03438 12.1063 6.53125 13.1125 6.69375 14.2875C6.71875 14.4875 6.6625 14.6563 6.525 14.7938C6.3875 14.9313 6.2125 15 6 15ZM9 15C8.7875 15 8.60938 14.9313 8.46563 14.7938C8.32188 14.6563 8.2375 14.4813 8.2125 14.2688C8.0375 12.6688 7.38438 11.3125 6.25313 10.2C5.12188 9.0875 3.75625 8.45 2.15625 8.2875C1.95625 8.2625 1.79688 8.175 1.67812 8.025C1.55937 7.875 1.5 7.7 1.5 7.5C1.5 7.2875 1.56563 7.10625 1.69688 6.95625C1.82813 6.80625 1.9875 6.74375 2.175 6.76875C4.1875 6.93125 5.9 7.71563 7.3125 9.12188C8.725 10.5281 9.525 12.2313 9.7125 14.2313C9.7375 14.4438 9.67813 14.625 9.53438 14.775C9.39063 14.925 9.2125 15 9 15ZM2.4375 15C2.175 15 1.95313 14.9094 1.77188 14.7281C1.59063 14.5469 1.5 14.325 1.5 14.0625C1.5 13.8 1.59063 13.5781 1.77188 13.3969C1.95313 13.2156 2.175 13.125 2.4375 13.125C2.7 13.125 2.92188 13.2156 3.10313 13.3969C3.28438 13.5781 3.375 13.8 3.375 14.0625C3.375 14.325 3.28438 14.5469 3.10313 14.7281C2.92188 14.9094 2.7 15 2.4375 15Z" fill="#AEAFB7"/>
</g>
</svg>
