<svg width="18" height="18" viewBox="0 0 18 18" fill="none" xmlns="http://www.w3.org/2000/svg">
<mask id="mask0_48_274" style="mask-type:alpha" maskUnits="userSpaceOnUse" x="0" y="0" width="18" height="18">
<rect width="18" height="18" fill="#D9D9D9"/>
</mask>
<g mask="url(#mask0_48_274)">
<path d="M4.57422 14.175H6.74922V10.4063C6.74922 10.2125 6.81797 10.0469 6.95547 9.90939C7.09297 9.77189 7.25859 9.70314 7.45234 9.70314H10.5461C10.7398 9.70314 10.9055 9.77189 11.043 9.90939C11.1805 10.0469 11.2492 10.2125 11.2492 10.4063V14.175H13.4242V7.51876L8.99922 4.20001L4.57422 7.51876V14.175ZM3.16797 14.175V7.51876C3.16797 7.29376 3.21641 7.08283 3.31328 6.88595C3.41016 6.68908 3.54922 6.52501 3.73047 6.39376L8.15547 3.07501C8.40547 2.88751 8.68672 2.79376 8.99922 2.79376C9.31172 2.79376 9.59297 2.88751 9.84297 3.07501L14.268 6.39376C14.4492 6.52501 14.5883 6.68908 14.6852 6.88595C14.782 7.08283 14.8305 7.29376 14.8305 7.51876V14.175C14.8305 14.5617 14.6928 14.8928 14.4174 15.1682C14.142 15.4436 13.8109 15.5813 13.4242 15.5813H10.5461C10.3523 15.5813 10.1867 15.5125 10.0492 15.375C9.91172 15.2375 9.84297 15.0719 9.84297 14.8781V11.1094H8.15547V14.8781C8.15547 15.0719 8.08672 15.2375 7.94922 15.375C7.81172 15.5125 7.64609 15.5813 7.45234 15.5813H4.57422C4.18749 15.5813 3.85644 15.4436 3.58105 15.1682C3.30566 14.8928 3.16797 14.5617 3.16797 14.175Z" fill="#C8262D"/>
</g>
</svg>
