<svg width="18" height="18" viewBox="0 0 18 18" fill="none" xmlns="http://www.w3.org/2000/svg">
<mask id="mask0_2_611" style="mask-type:alpha" maskUnits="userSpaceOnUse" x="0" y="0" width="18" height="18">
<rect width="18" height="18" fill="#D9D9D9"/>
</mask>
<g mask="url(#mask0_2_611)">
<path d="M8.99927 15C8.58677 15 8.23364 14.8531 7.93989 14.5594C7.64614 14.2656 7.49927 13.9125 7.49927 13.5C7.49927 13.0875 7.64614 12.7344 7.93989 12.4406C8.23364 12.1469 8.58677 12 8.99927 12C9.41177 12 9.76489 12.1469 10.0586 12.4406C10.3524 12.7344 10.4993 13.0875 10.4993 13.5C10.4993 13.9125 10.3524 14.2656 10.0586 14.5594C9.76489 14.8531 9.41177 15 8.99927 15ZM8.99927 10.5C8.58677 10.5 8.23364 10.3531 7.93989 10.0594C7.64614 9.76562 7.49927 9.4125 7.49927 9C7.49927 8.5875 7.64614 8.23437 7.93989 7.94062C8.23364 7.64687 8.58677 7.5 8.99927 7.5C9.41177 7.5 9.76489 7.64687 10.0586 7.94062C10.3524 8.23437 10.4993 8.5875 10.4993 9C10.4993 9.4125 10.3524 9.76562 10.0586 10.0594C9.76489 10.3531 9.41177 10.5 8.99927 10.5ZM8.99927 6C8.58677 6 8.23364 5.85312 7.93989 5.55937C7.64614 5.26562 7.49927 4.9125 7.49927 4.5C7.49927 4.0875 7.64614 3.73438 7.93989 3.44062C8.23364 3.14688 8.58677 3 8.99927 3C9.41177 3 9.76489 3.14688 10.0586 3.44062C10.3524 3.73438 10.4993 4.0875 10.4993 4.5C10.4993 4.9125 10.3524 5.26562 10.0586 5.55937C9.76489 5.85312 9.41177 6 8.99927 6Z" fill="#263238"/>
</g>
</svg>
